<svg id="Layer_1" data-name="Layer 1" xmlns="http://www.w3.org/2000/svg" xmlns:xlink="http://www.w3.org/1999/xlink" viewBox="0 0 720 720">
  <defs>
    <style>
      .cls-1 {
        fill: none;
      }

      .cls-2 {
        clip-path: url(#clippath);
      }

      .cls-3 {
        fill: #fab123;
      }

      .cls-4 {
        fill: #fc4747;
      }

      .cls-5 {
        fill: #ffff40;
      }

      .cls-6 {
        fill: #ffbfff;
      }

      .cls-7 {
        fill: #804de5;
      }

      .cls-8 {
        fill: #84cef9;
      }

      .cls-9 {
        fill: #b0df29;
      }

      .cls-10 {
        fill: #fff;
        stroke: #221f1f;
        stroke-linecap: round;
        stroke-linejoin: round;
        stroke-width: 8px;
      }
    </style>
    <clipPath id="clippath">
      <rect class="cls-1" width="720" height="720"></rect>
    </clipPath>
  </defs>
  <g class="cls-2">
    <g>
      <rect class="cls-4" x="0" y=".1" width="102.86" height="719.79"></rect>
      <rect class="cls-3" x="205.72" y=".15" width="102.86" height="719.79"></rect>
      <rect class="cls-5" x="308.57" y=".1" width="102.86" height="719.79"></rect>
      <rect class="cls-9" x="411.43" y=".15" width="102.86" height="719.79"></rect>
      <rect class="cls-8" x="514.29" y=".21" width="102.86" height="719.79"></rect>
      <rect class="cls-7" x="617.14" y=".15" width="102.86" height="719.79"></rect>
      <rect class="cls-6" x="102.86" y=".1" width="102.86" height="719.79"></rect>
    </g>
    <g>
      <path class="cls-10" d="M79.58,507.77V225.67c1.67-.28,3.36-.81,5.05-.82,28.74-.04,57.49-.52,86.22,.11,35.22,.78,69.65,33.99,70.37,69.22,.98,48.44,1.02,96.93-.02,145.36-.76,34.94-34.1,67.49-69.76,68.83-29.6,1.11-59.27,.24-88.9,.2-.83,0-1.66-.44-2.95-.81Zm50.83-50.48c10.96,0,21.13,.75,31.15-.16,18.41-1.68,28.51-11.91,28.75-30.18,.51-40.06,.43-80.13,.03-120.19-.16-16-8.24-27.27-22.38-29.33-12.18-1.78-24.82-.37-37.55-.37v180.23Z"></path>
      <path class="cls-10" d="M443.22,224.83c17.61,0,34.94-.2,52.26,.29,1.86,.05,4.59,3.88,5.25,6.39,15.07,56.99,29.9,114.04,44.8,171.08,1.01,3.87,2.19,7.71,4.83,11.31,16.38-62.94,32.75-125.88,49.14-188.85h56.77c-4.19,16.17-8.18,31.87-12.34,47.54-17.19,64.75-34.02,129.6-52.05,194.12-3.16,11.31-9.95,22.49-17.71,31.43-13.31,15.34-35.65,15.52-49.16,.36-7.88-8.84-14.92-19.98-18.03-31.27-21.76-78.92-42.39-158.14-63.35-237.28-.37-1.4-.24-2.92-.4-5.13Z"></path>
      <path class="cls-10" d="M324.53,341.07h55.08v51.46h-54.44v64.67h89.74v51.07c-2.72,.13-5.59,.38-8.46,.38-32.94,.03-65.88,.04-98.82,0-18.54-.02-32.37-12.51-34.15-30.92-.49-5.05-.65-10.15-.65-15.22-.04-65.57,.01-131.13-.06-196.7-.01-12.34,1.45-24.34,11.92-32.31,5.23-3.98,12.03-8.17,18.19-8.3,37.08-.77,74.19-.38,111.94-.38v50.98c-21.19,0-42.07-.08-62.96,.04-8.63,.05-20.89-2.78-24.92,1.66-4.62,5.09-2.18,16.8-2.36,25.65-.24,12.18-.06,24.38-.06,37.92Z"></path>
    </g>
  </g>
</svg>